<svg xmlns="http://www.w3.org/2000/svg" viewBox="0 0 1700 1270"><defs><style>.cls-1{isolation:isolate;}.cls-2{fill:#fff;}.cls-3{fill:#8e9ba2;}.cls-4{fill:#b22759;}.cls-5{opacity:0.12;mix-blend-mode:multiply;}.cls-6{fill:#a30a40;}.cls-7{fill:#ebceb1;}.cls-8{fill:#293a53;}.cls-9{fill:#ad6f5e;}.cls-10{fill:#96795d;}.cls-11{fill:#c2c1b3;}.cls-12{fill:#d6b492;}.cls-13{fill:#dae0e3;}.cls-14{fill:#828e94;}</style></defs><title>Helping_hearts</title><g class="cls-1"><g id="background"><rect class="cls-2" width="1700" height="1270"/></g><g id="object"><polygon class="cls-3" points="1418 779 1404.18 1270 1601.86 1270 1561 819 1418 779"/><path class="cls-4" d="M353.21,365.28c-42.16,4.53-90.18,36.65-95.88,74.47C238.1,406.68,170.25,397,129.38,408.31,21.52,438.13,7.73,567.37,69.85,640.68c33.43,39.45,76.73,71.26,122.55,98.51,38.36,22.81,134.78,68.33,135,68.07.3.16,73.2-77.65,100.48-113,32.58-42.19,61.13-87.7,77.7-136.69C536.37,466.57,464.46,353.31,353.21,365.28Z"/><g class="cls-5"><path d="M484.26,571a606,606,0,0,1-76,108.32C380,711.4,345.37,741.21,304,756.86A152.78,152.78,0,0,1,244,767c40.09,20.3,83.33,40.64,83.47,40.46.3.16,73.2-77.64,100.48-113,32.58-42.19,61.13-87.71,77.7-136.69a138.22,138.22,0,0,0,7.07-48.8A439.86,439.86,0,0,1,484.26,571Z"/></g><path class="cls-6" d="M796,145.68c-46.42-8-107.49,11.7-125.1,50.36-10.47-41.18-80-72.16-127.1-72.54-124.29-1-178.37,132.88-134.33,230.1,23.7,52.32,60.27,99.48,100.92,142.53,34,36,123.17,114,123.48,113.82.27.26,101.84-60.66,141.73-90.09,47.65-35.15,92-75.08,124.62-122.36C960.76,309.65,918.44,166.77,796,145.68Z"/><g class="cls-5"><path d="M873.13,405A673.43,673.43,0,0,1,759,497.62c-40,25.61-86,46.92-135,51a169.66,169.66,0,0,1-67.17-7.47c36.64,33.9,76.64,68.78,76.85,68.64.27.26,101.83-60.65,141.73-90.09C823,484.59,867.4,444.67,900,397.38a153.46,153.46,0,0,0,22.4-50A489,489,0,0,1,873.13,405Z"/></g><path class="cls-4" d="M1176.13,439c-41-12.45-98.39-1.54-118.65,31.4-4.82-38.37-64.13-74.18-106.63-79.82C838.71,375.68,774.8,490.5,803.63,583.25c15.51,49.93,43.23,96.64,75.09,140.1C905.41,759.74,977.14,840.2,977.44,840c.21.27,98.8-43.31,138.15-65.41,47-26.38,91.54-57.44,126.32-96.48C1306.52,605.63,1284.38,471.82,1176.13,439Z"/><g class="cls-5"><path d="M1217.22,682a613.22,613.22,0,0,1-113.51,70.76c-39,18.63-83,32.69-127.67,30.89a154.41,154.41,0,0,1-59.82-14.3c29.27,34.74,61.47,70.74,61.67,70.64.22.27,98.8-43.31,138.15-65.41,47-26.38,91.54-57.45,126.32-96.48a139.59,139.59,0,0,0,25.86-42.61A445.23,445.23,0,0,1,1217.22,682Z"/></g><path class="cls-6" d="M1491.39,234c-44.87,5.75-95.38,41-100.65,81.51-21.22-34.85-93.8-43.7-137.15-30.76-114.39,34.13-126.3,172.28-58.46,249.12,36.51,41.35,83.38,74.35,132.84,102.41,41.41,23.5,145.23,70,145.46,69.68.32.17,76.39-84.39,104.73-122.66,33.83-45.71,63.3-94.87,79.91-147.48C1688.93,338.05,1609.8,218.8,1491.39,234Z"/><g class="cls-5"><path d="M1635.78,450.61a647.34,647.34,0,0,1-78.7,117.18c-29.48,34.79-65.76,67.34-109.56,84.92a163,163,0,0,1-63.77,12.08c43.19,20.79,89.75,41.54,89.9,41.35.32.17,76.4-84.39,104.73-122.66,33.83-45.71,63.3-94.87,79.91-147.48a147.06,147.06,0,0,0,6.48-52.2A468.67,468.67,0,0,1,1635.78,450.61Z"/></g><polygon class="cls-7" points="223 943 223 820 192 739 202 699 251 688 254 714 224 725 246 768 300.67 794.67 280 823 296 968 223 943"/><path class="cls-8" d="M223,834.67s29.57,13.66,58.29,0L283.64,856S252,870.33,223,854.67Z"/><path class="cls-9" d="M206,921l-26.13,349H367.69C349.13,1136.24,310,943,310,943Z"/><polygon class="cls-10" points="673.94 724.23 674 650 717 590 717 551 661 515 646 538 681.5 581.19 634 610 571 554 566 595 597 661 590 730 673 747 673.94 724.23"/><polygon class="cls-11" points="571.52 698.58 693 729 707.81 1011.65 812.5 1270 555 1270 522.93 1011.29 571.52 698.58"/><polygon class="cls-8" points="1001 969 1130.58 933.06 1152.34 1270 957.09 1270 1001 969"/><polygon class="cls-12" points="1116 775 1037.38 813.28 1013 798 1009 755 985 747 969 819 1027 875 1018 964 1109 939 1100 862 1116 775"/><polygon class="cls-13" points="1004.21 968 1009 927 1119 905 1123 935 1004.21 968"/><path class="cls-7" d="M1536,779s38-86,37-85-19.82-79.35-19.82-79.35L1474,706l-28.5-12.5L1445,661l32-20-15-26-67,24-6,69,52.5,71,1.5,7,96,27Z"/><polygon class="cls-14" points="1404 775 1401 834 1581 868 1576 821 1404 775"/></g></g></svg>