<svg xmlns="http://www.w3.org/2000/svg" xmlns:xlink="http://www.w3.org/1999/xlink" viewBox="0 0 3710 3710"><defs><style>.cls-1{isolation:isolate;}.cls-14,.cls-16,.cls-2,.cls-5{fill:#fff;}.cls-3{fill:url(#linear-gradient);}.cls-4{fill:#bdd0fb;}.cls-5{mix-blend-mode:soft-light;}.cls-6{fill:#91b3fa;}.cls-7{fill:url(#linear-gradient-2);}.cls-8{fill:url(#linear-gradient-3);}.cls-9{fill:url(#linear-gradient-4);}.cls-10{fill:url(#linear-gradient-5);}.cls-11{fill:url(#linear-gradient-6);}.cls-12{fill:#7d97f4;}.cls-13,.cls-14{opacity:0.6;}.cls-15{opacity:0.8;}.cls-16{opacity:0.81;}.cls-17{fill:url(#linear-gradient-7);}.cls-18{fill:url(#linear-gradient-8);}.cls-19{fill:url(#linear-gradient-9);}.cls-20{fill:url(#linear-gradient-10);}.cls-21{fill:url(#linear-gradient-11);}.cls-22{fill:url(#linear-gradient-12);}.cls-23{fill:url(#linear-gradient-13);}.cls-24{fill:url(#linear-gradient-14);}.cls-25{fill:url(#linear-gradient-15);}.cls-26{fill:url(#linear-gradient-16);}.cls-27{fill:url(#linear-gradient-17);}.cls-28{fill:url(#linear-gradient-18);}.cls-29{fill:url(#linear-gradient-19);}.cls-30{fill:url(#linear-gradient-20);}.cls-31{fill:url(#linear-gradient-21);}.cls-32{fill:url(#linear-gradient-22);}.cls-33{fill:url(#linear-gradient-23);}.cls-34{fill:url(#linear-gradient-24);}.cls-35{fill:url(#linear-gradient-25);}.cls-36{fill:url(#linear-gradient-26);}.cls-37{fill:url(#linear-gradient-27);}.cls-38{fill:url(#linear-gradient-28);}.cls-39{fill:url(#linear-gradient-29);}.cls-40{fill:url(#linear-gradient-30);}.cls-41{fill:url(#linear-gradient-31);}.cls-42{fill:url(#linear-gradient-32);}.cls-43{fill:url(#linear-gradient-33);}.cls-44{fill:url(#linear-gradient-34);}.cls-45{fill:url(#linear-gradient-35);}.cls-46{fill:url(#linear-gradient-36);}.cls-47{fill:url(#linear-gradient-37);}.cls-48{fill:url(#linear-gradient-38);}.cls-49{fill:url(#linear-gradient-39);}.cls-50{fill:url(#linear-gradient-40);}.cls-51{fill:url(#linear-gradient-41);}.cls-52{fill:url(#linear-gradient-42);}.cls-53{fill:url(#linear-gradient-43);}.cls-54{fill:url(#linear-gradient-44);}.cls-55{fill:url(#linear-gradient-45);}.cls-56{fill:url(#linear-gradient-46);}.cls-57{fill:url(#linear-gradient-47);}.cls-58{fill:url(#linear-gradient-48);}.cls-59{fill:url(#linear-gradient-49);}.cls-60{fill:url(#linear-gradient-50);}.cls-61{fill:url(#linear-gradient-51);}.cls-62{fill:url(#linear-gradient-52);}.cls-63{fill:url(#linear-gradient-53);}</style><linearGradient id="linear-gradient" x1="3325.77" y1="3528.82" x2="1327.96" y2="1372.45" gradientUnits="userSpaceOnUse"><stop offset="0" stop-color="#dae3fe"/><stop offset="1" stop-color="#e9effd"/></linearGradient><linearGradient id="linear-gradient-2" x1="-5211.03" y1="817.2" x2="-4413.1" y2="817.2" gradientTransform="matrix(-1, 0, 0, 1, -3425.21, 0)" gradientUnits="userSpaceOnUse"><stop offset="0" stop-color="#2b3582"/><stop offset="1" stop-color="#150e42"/></linearGradient><linearGradient id="linear-gradient-3" x1="751.01" y1="1165.23" x2="2539.62" y2="3397.58" gradientUnits="userSpaceOnUse"><stop offset="0" stop-color="#4f52ff"/><stop offset="1" stop-color="#4042e2"/></linearGradient><linearGradient id="linear-gradient-4" x1="3192.36" y1="721.6" x2="1799.7" y2="1520.33" xlink:href="#linear-gradient-3"/><linearGradient id="linear-gradient-5" x1="-5449.85" y1="812.53" x2="-4651.91" y2="812.53" xlink:href="#linear-gradient-2"/><linearGradient id="linear-gradient-6" x1="2160.83" y1="3067.1" x2="2042.4" y2="-438.44" gradientUnits="userSpaceOnUse"><stop offset="0" stop-color="#09005d"/><stop offset="1" stop-color="#1a0f91"/></linearGradient><linearGradient id="linear-gradient-7" x1="2346.41" y1="622.09" x2="1754.13" y2="1401.22" xlink:href="#linear-gradient-6"/><linearGradient id="linear-gradient-8" x1="2411.37" y1="671.48" x2="1819.1" y2="1450.61" xlink:href="#linear-gradient-6"/><linearGradient id="linear-gradient-9" x1="1881.29" y1="1748.71" x2="1544.5" y2="1996.74" gradientUnits="userSpaceOnUse"><stop offset="0" stop-color="#febbba"/><stop offset="1" stop-color="#ff928e"/></linearGradient><linearGradient id="linear-gradient-10" x1="2224.3" y1="1101.93" x2="1787.38" y2="2091.8" gradientUnits="userSpaceOnUse"><stop offset="0" stop-color="#ff928e"/><stop offset="1" stop-color="#fe7062"/></linearGradient><linearGradient id="linear-gradient-11" x1="2521.82" y1="1233.25" x2="2084.91" y2="2223.12" xlink:href="#linear-gradient-10"/><linearGradient id="linear-gradient-12" x1="865.26" y1="1603.49" x2="818.05" y2="1461.85" gradientTransform="translate(1290.1)" xlink:href="#linear-gradient-9"/><linearGradient id="linear-gradient-13" x1="2045.09" y1="1429.68" x2="2214.78" y2="1503.45" xlink:href="#linear-gradient-9"/><linearGradient id="linear-gradient-14" x1="5068.19" y1="5694.07" x2="5270.89" y2="5694.07" gradientTransform="matrix(-0.69, -0.73, -0.73, 0.69, 9787.37, 1318.79)" xlink:href="#linear-gradient-6"/><linearGradient id="linear-gradient-15" x1="2034.51" y1="1454" x2="2204.2" y2="1527.77" xlink:href="#linear-gradient-9"/><linearGradient id="linear-gradient-16" x1="2386.44" y1="3244.8" x2="2597.32" y2="3244.8" gradientTransform="matrix(-1, 0, 0, 1, 4753.76, 0)" xlink:href="#linear-gradient-6"/><linearGradient id="linear-gradient-17" x1="2876.33" y1="3047.5" x2="2112.74" y2="3265.14" xlink:href="#linear-gradient-3"/><linearGradient id="linear-gradient-18" x1="2405.91" y1="3145.77" x2="2465.31" y2="3145.77" gradientTransform="matrix(-1, 0, 0, 1, 4753.76, 0)" xlink:href="#linear-gradient-9"/><linearGradient id="linear-gradient-19" x1="1966.02" y1="3240.25" x2="2046.83" y2="3240.25" gradientTransform="matrix(-1, 0, 0, 1, 4753.76, 0)" xlink:href="#linear-gradient-6"/><linearGradient id="linear-gradient-20" x1="2450.64" y1="3003.26" x2="2926.51" y2="3313.13" xlink:href="#linear-gradient-3"/><linearGradient id="linear-gradient-21" x1="2028.26" y1="3096.25" x2="2099.26" y2="3096.25" gradientTransform="matrix(-1, 0, 0, 1, 4753.76, 0)" xlink:href="#linear-gradient-9"/><linearGradient id="linear-gradient-22" x1="2407.3" y1="2087.96" x2="2482.5" y2="3110.67" xlink:href="#linear-gradient-6"/><linearGradient id="linear-gradient-23" x1="2393.58" y1="2669.19" x2="2393.58" y2="2452.44" xlink:href="#linear-gradient-3"/><linearGradient id="linear-gradient-24" x1="3554.21" y1="-2677.96" x2="3453.52" y2="-2524.36" gradientTransform="translate(1990 -609.6) rotate(-7.3)" xlink:href="#linear-gradient-3"/><linearGradient id="linear-gradient-25" x1="3538.65" y1="-2688.35" x2="3437.95" y2="-2534.75" gradientTransform="translate(1990 -609.6) rotate(-7.3)" xlink:href="#linear-gradient-3"/><linearGradient id="linear-gradient-26" x1="3692.79" y1="-2587.12" x2="3592.09" y2="-2433.52" gradientTransform="translate(1990 -609.6) rotate(-7.3)" xlink:href="#linear-gradient-3"/><linearGradient id="linear-gradient-27" x1="3676.26" y1="-2598.15" x2="3575.56" y2="-2444.54" gradientTransform="translate(1990 -609.6) rotate(-7.3)" xlink:href="#linear-gradient-3"/><linearGradient id="linear-gradient-28" x1="3591.49" y1="-2653.55" x2="3490.8" y2="-2499.94" gradientTransform="translate(1990 -609.6) rotate(-7.3)" xlink:href="#linear-gradient-3"/><linearGradient id="linear-gradient-29" x1="32.96" y1="2806.81" x2="-39.49" y2="3483.02" gradientTransform="translate(1990 -609.6) rotate(-7.3)" xlink:href="#linear-gradient-3"/><linearGradient id="linear-gradient-30" x1="2906.49" y1="1792.26" x2="2551.5" y2="2235.99" xlink:href="#linear-gradient-6"/><linearGradient id="linear-gradient-31" x1="2763.24" y1="1848.58" x2="2445.8" y2="2352.05" xlink:href="#linear-gradient-3"/><linearGradient id="linear-gradient-32" x1="2620.54" y1="1354.18" x2="2359.83" y2="2223.2" xlink:href="#linear-gradient-9"/><linearGradient id="linear-gradient-33" x1="2643.03" y1="1286.75" x2="2206.12" y2="2276.62" xlink:href="#linear-gradient-10"/><linearGradient id="linear-gradient-34" x1="3082.86" y1="959.6" x2="2311.44" y2="1877.79" xlink:href="#linear-gradient-10"/><linearGradient id="linear-gradient-35" x1="-351.18" y1="3189.33" x2="-212.83" y2="3189.33" gradientTransform="translate(1290.1)" xlink:href="#linear-gradient-6"/><linearGradient id="linear-gradient-36" x1="-4.84" y1="3026.12" x2="-508.14" y2="3421.31" gradientTransform="translate(1290.1)" xlink:href="#linear-gradient-3"/><linearGradient id="linear-gradient-37" x1="-312.7" y1="3031.83" x2="-339.13" y2="3262.46" gradientTransform="translate(1290.1)" xlink:href="#linear-gradient-9"/><linearGradient id="linear-gradient-38" x1="84.57" y1="3139.82" x2="-418.73" y2="3535.01" gradientTransform="translate(1290.1)" xlink:href="#linear-gradient-3"/><linearGradient id="linear-gradient-39" x1="-140.52" y1="3192.84" x2="58.63" y2="3192.84" gradientTransform="translate(1290.1)" xlink:href="#linear-gradient-6"/><linearGradient id="linear-gradient-40" x1="7.35" y1="2996.88" x2="-19.07" y2="3227.51" gradientTransform="translate(993.21 65.77) rotate(-3.61)" xlink:href="#linear-gradient-9"/><linearGradient id="linear-gradient-41" x1="850.47" y1="3366.45" x2="1181.36" y2="2223.36" xlink:href="#linear-gradient-6"/><linearGradient id="linear-gradient-42" x1="1853.16" y1="-233.94" x2="1115.87" y2="653.53" gradientTransform="translate(690.6 157.81) rotate(-7.69)" xlink:href="#linear-gradient-10"/><linearGradient id="linear-gradient-43" x1="-207.28" y1="1687.64" x2="-145.91" y2="1520.04" gradientTransform="translate(1290.1)" xlink:href="#linear-gradient-9"/><linearGradient id="linear-gradient-44" x1="1208.65" y1="1566.43" x2="1124.45" y2="1359.36" xlink:href="#linear-gradient-9"/><linearGradient id="linear-gradient-45" x1="1487.23" y1="293.57" x2="1242.21" y2="1074.56" xlink:href="#linear-gradient-6"/><linearGradient id="linear-gradient-46" x1="1150.92" y1="1589.9" x2="1066.72" y2="1382.83" xlink:href="#linear-gradient-9"/><linearGradient id="linear-gradient-47" x1="1072.07" y1="1953.95" x2="1331.48" y2="1651.3" xlink:href="#linear-gradient-10"/><linearGradient id="linear-gradient-48" x1="1650.08" y1="1658.29" x2="1263.99" y2="1850.34" xlink:href="#linear-gradient-9"/><linearGradient id="linear-gradient-49" x1="1644.43" y1="1610.12" x2="1512.36" y2="1748.05" xlink:href="#linear-gradient-9"/><linearGradient id="linear-gradient-50" x1="1651.91" y1="1656.01" x2="1265.83" y2="1848.07" xlink:href="#linear-gradient-9"/><linearGradient id="linear-gradient-51" x1="1572.15" y1="2024.48" x2="1039.67" y2="1751.41" xlink:href="#linear-gradient-9"/><linearGradient id="linear-gradient-52" x1="2474.92" y1="133.31" x2="-16.84" y2="3082.47" gradientUnits="userSpaceOnUse"><stop offset="0" stop-color="#e1473d"/><stop offset="1" stop-color="#e9605a"/></linearGradient><linearGradient id="linear-gradient-53" x1="2456.25" y1="117.55" x2="-35.51" y2="3066.7" xlink:href="#linear-gradient-52"/></defs><title>Role</title><g class="cls-1"><g id="Background"><rect class="cls-2" width="3710" height="3710"/></g><g id="Illustration"><path class="cls-3" d="M3047.37,2300c-274.52,641.64-999.14,917.24-1566.9,870.25-155-12.83-466.93-38.64-710.47-268.95C302.31,2459,374.33,1534.5,822.06,990.2c57.65-70.09,456.75-539.72,1078.66-533.43,455.34,4.6,774.93,261.81,813.79,293.85,49.09,40.48,157.37,136.68,255,289.28C3198.76,1398.47,3218.91,1899,3047.37,2300Z"/><path class="cls-4" d="M3257.44,476.2c6.34-12.66-10.4-26.07-24.18-19.45-140,67.18-489.7,284.9-538,799.45-60.66,645.58-265.62,837.59-486.29,931.93,0,0,273.14-4,490.29-196.67C3232.35,1518.44,3144.61,701.32,3257.44,476.2Z"/><path class="cls-5" d="M3121.69,650c-31.24,66-60.93,132.66-87.73,200.31q-40.82,101.24-74.3,204.86c-22,69.13-42.43,138.7-59.43,209.13-17.36,70.33-31.21,141.44-44.82,212.9-14.06,71.32-27.76,143.27-50,213.72S2751,1829.82,2705,1890.35c-11.48,15.07-23.34,30-36.13,44.12-12.48,14.35-25.73,28.17-39.27,41.76a784.48,784.48,0,0,1-88.35,75.68c-63.42,46.33-135.49,83.65-211.74,111.6-8,2.95-17.69-.55-21.59-7.8s-.66-15.22,7.06-18.3l0,0c18.29-7.27,36.45-14.73,54.12-22.89,8.92-3.95,17.59-8.26,26.36-12.41,8.56-4.45,17.35-8.6,25.72-13.29a778.84,778.84,0,0,0,96.33-61.09c60.6-44.64,113.28-97.91,157.34-155.65a635.17,635.17,0,0,0,56.9-91.7A697.83,697.83,0,0,0,2772.4,1681c22.22-68.23,36.46-139.3,51.11-210.5s30.17-142.6,48.95-213.15q13.92-52.95,30-105.3c5.25-17.48,10.89-34.84,16.5-52.21q8.7-26,17.78-51.81,36.67-103.26,80.69-203.87c29.73-66.88,61.53-132.93,96.27-197.62a4.41,4.41,0,0,1,5.74-1.54A3.83,3.83,0,0,1,3121.69,650Z"/><path class="cls-6" d="M2594,1898.81c10.75,18.69,37.09,20.33,50.29,3.28,72.85-94,254.79-378.51,161.5-778.41-78.78-337.7-89.41-528.3-88.24-615.16.25-18.37-23.1-26.37-34.2-11.74C2560.8,658.19,2204.53,1221.66,2594,1898.81Z"/><path class="cls-5" d="M2622.77,1893.91a8,8,0,0,0,1.55.5,8.41,8.41,0,0,0,10-6.39c1.14-5.14,113.22-519.85,24.89-994.35a8.42,8.42,0,0,0-16.56,3.09c87.69,471-23.63,982.5-24.76,987.61A8.41,8.41,0,0,0,2622.77,1893.91Z"/><path class="cls-7" d="M996.42,1159.22h-.33a8.53,8.53,0,0,1-8.2-8.85c0-1.13,4.63-114.61,33.22-246.28,38.57-177.72,100.08-302.33,182.81-370.38,59.21-48.69,128.91-67.13,207.16-54.82,90.15,14.19,166,58.72,225.47,132.34,47.21,58.46,84.15,135.26,109.8,228.28,43.47,157.67,39.39,309.92,39.34,311.44a8.45,8.45,0,0,1-8.79,8.27,8.54,8.54,0,0,1-8.27-8.79c0-1.49,4-151.51-38.83-306.74-25-90.66-60.92-165.31-106.65-221.88-56.7-70.14-129-112.55-214.73-126.06-73.23-11.53-138.38,5.68-193.66,51.15-99.26,81.64-151,241.27-177,360.81-28.26,130.22-32.79,242.19-32.84,243.31A8.52,8.52,0,0,1,996.42,1159.22Z"/><path class="cls-8" d="M2502.43,3053.09,2206.57,1012.87,1049.68,998.12l-275,2165.63,1631.55,2.74C2465.57,3166.49,2511.09,3112.85,2502.43,3053.09Z"/><path class="cls-9" d="M837.84,1016.46l211.84-18.34-275,2165.63-252,2.74c-43.44,0-53.15-12.14-44.29-55.41Z"/><path class="cls-10" d="M1235.24,1154.54h-.34a8.54,8.54,0,0,1-8.2-8.85c0-1.13,4.64-114.61,33.22-246.28C1298.5,721.69,1360,597.08,1442.74,529c59.21-48.69,128.93-67.13,207.16-54.82,90.15,14.19,166,58.72,225.47,132.34,47.21,58.46,84.15,135.26,109.8,228.28,43.47,157.67,39.39,309.92,39.34,311.44a8.43,8.43,0,0,1-8.79,8.27,8.54,8.54,0,0,1-8.27-8.79c0-1.5,4-151.51-38.83-306.74-25-90.66-60.92-165.31-106.65-221.88-56.7-70.14-129-112.56-214.73-126.06-73.21-11.53-138.37,5.68-193.64,51.13-99.22,81.6-151,241.11-176.94,360.56-28.3,130.25-32.86,242.46-32.9,243.58A8.54,8.54,0,0,1,1235.24,1154.54Z"/><path class="cls-11" d="M1327.64,1220.25a151.41,151.41,0,0,1,151.41-151.41H2766.71a133.4,133.4,0,0,1,133.23,126.61l95,1866.87a98.38,98.38,0,0,1-96.46,103.35L1422.71,3192.5a93.37,93.37,0,0,1-95.07-93.36Z"/><path class="cls-12" d="M1433.13,1097.57A44,44,0,0,1,1483,1053.7c175.84,23.85,780.52,97.6,1280.45,59.22a40.67,40.67,0,0,1,43.8,38.36l99.66,1875.18a46.79,46.79,0,0,1-44,49.22c-210.26,12.45-1076.19,60.55-1385.06,28.2a37.1,37.1,0,0,1-33.18-36.7Z"/><path class="cls-4" d="M1453.84,1144.56a42.32,42.32,0,0,1,48-42.21c169.22,22.94,751.12,93.92,1232.23,57a39.15,39.15,0,0,1,42.15,36.92l95.91,1804.57a45.05,45.05,0,0,1-42.32,47.37c-202.34,12-1035.67,58.26-1332.9,27.13A35.69,35.69,0,0,1,1465,3040Z"/><g class="cls-13"><path class="cls-2" d="M2697,1320.66a4.44,4.44,0,0,0,4.45-4.59l-.49-16.78a4.85,4.85,0,0,0-4.72-4.67l-485.4-8.65a3,3,0,0,0-3.06,4.24l9.19,26.12a7,7,0,0,0,6.12,4.33Z"/></g><g class="cls-13"><path class="cls-2" d="M2210.82,1394.26a3,3,0,0,0-3.06,4.24l9.19,26.12a7,7,0,0,0,6.12,4.33H2697a4.44,4.44,0,0,0,4.45-4.59l-.49-16.78a4.85,4.85,0,0,0-4.72-4.67Z"/></g><g class="cls-13"><path class="cls-2" d="M2207.53,1609.77a3,3,0,0,0-3.06,4.24l9.2,26.12a7,7,0,0,0,6.11,4.33h473.91a4.45,4.45,0,0,0,4.46-4.59l-.49-16.78a4.87,4.87,0,0,0-4.73-4.67Z"/></g><g class="cls-13"><path class="cls-2" d="M2210.82,1506.88a3,3,0,0,0-3.06,4.25l9.19,26.12a7,7,0,0,0,6.12,4.32H2697a4.43,4.43,0,0,0,4.45-4.58l-.49-16.79a4.85,4.85,0,0,0-4.72-4.66Z"/></g><g class="cls-13"><path class="cls-2" d="M2725.65,1897.74a4.23,4.23,0,0,0,4.27-4.58l-1.15-16.8a5,5,0,0,0-4.9-4.61L1571.19,1863c-2.52,0-3.27,1.56-1.66,3.5l22.92,27.7a11.08,11.08,0,0,0,7.51,3.54Z"/></g><g class="cls-13"><path class="cls-2" d="M1571.19,1974.58c-2.52,0-3.27,1.56-1.66,3.5l22.92,27.7a11.08,11.08,0,0,0,7.51,3.54H2725.65a4.23,4.23,0,0,0,4.27-4.58l-1.15-16.8a5,5,0,0,0-4.9-4.62Z"/></g><g class="cls-13"><path class="cls-2" d="M1581.27,2426.86a22.79,22.79,0,0,0,22.24,17l849.6-7.24a17.24,17.24,0,0,0-.07-34.48l-849.62-3.87A22.79,22.79,0,0,0,1581.27,2426.86Z"/></g><g class="cls-13"><path class="cls-2" d="M1579,2257.8a22.8,22.8,0,0,0,22.24,17l849.6-7.24a17.24,17.24,0,0,0-.06-34.48l-849.63-3.88A22.81,22.81,0,0,0,1579,2257.8Z"/></g><g class="cls-13"><path class="cls-2" d="M1581.27,2623.66a22.8,22.8,0,0,0,22.24,17l849.6-7.25a17.24,17.24,0,0,0-.07-34.48l-849.62-3.87A22.79,22.79,0,0,0,1581.27,2623.66Z"/></g><g class="cls-13"><path class="cls-2" d="M1591.13,2820.47a22.8,22.8,0,0,0,22.24,17l849.6-7.24a17.24,17.24,0,0,0-.07-34.48l-849.62-3.88A22.8,22.8,0,0,0,1591.13,2820.47Z"/></g><path class="cls-2" d="M2696,2294.26h-.25l-91.81,1.93c-13.12.27-24.22-8.42-25.82-20.22l-10.42-76.76a16.68,16.68,0,0,1,3.56-12.7,20.14,20.14,0,0,1,13.83-7.36h0c7.72-.77,18.58-2,30.08-3.36,24.21-2.81,54.34-6.31,71.34-7,12.33-.44,23,6.54,26.25,17.19,5.32,17.53,5.92,51,6.1,86.68C2718.9,2284.22,2708.67,2293.87,2696,2294.26Zm-110.21-108.09a13,13,0,0,0-9,4.72,9.73,9.73,0,0,0-2.12,7.38l10.43,76.76c1.12,8.25,9.15,14.32,18.68,14.12l91.81-1.93h.18c8.9-.28,16.07-6.77,16-14.55-.18-35.14-.75-68.05-5.8-84.67-2.26-7.45-10.24-12.44-19.2-12.2-16.74.73-46.73,4.21-70.83,7-11.53,1.34-22.42,2.6-30.19,3.37Z"/><path class="cls-14" d="M2595.89,2193.82c19.24-1.91,61-7.44,80.88-8.3,8.42-.36,16,4.5,18.16,11.74,4.27,14.07,4.63,42.35,4.76,68.47,0,7.82-7,14.28-15.71,14.46l-73.37,1.54c-9,.19-16.7-5.73-17.78-13.72l-8.33-61.34C2583.63,2200.33,2588.76,2194.53,2595.89,2193.82Z"/><path class="cls-2" d="M2716,2483.84h-.25l-91.81,1.92c-13.12.28-24.22-8.42-25.82-20.21l-10.43-76.76a16.77,16.77,0,0,1,3.57-12.71,20.18,20.18,0,0,1,13.83-7.36h0c7.72-.76,18.58-2,30.08-3.36,24.21-2.81,54.34-6.3,71.33-7h.37c12.07-.37,22.68,6.66,25.89,17.21,5.32,17.53,5.92,51,6.1,86.68C2739,2473.8,2728.73,2483.45,2716,2483.84Zm-110.21-108.09a13,13,0,0,0-9,4.71,9.75,9.75,0,0,0-2.12,7.39l10.42,76.76c1.12,8.24,9.16,14.31,18.69,14.11l91.81-1.92h.18c8.9-.27,16.07-6.76,16-14.55-.18-35.13-.76-68-5.8-84.67-2.27-7.44-10.36-12.6-19.2-12.19-16.74.72-46.73,4.2-70.83,7-11.53,1.34-22.42,2.6-30.19,3.37Z"/><path class="cls-14" d="M2616,2383.4c19.24-1.91,61-7.45,80.88-8.3,8.42-.36,16,4.5,18.16,11.74,4.27,14.07,4.63,42.35,4.76,68.47,0,7.82-6.95,14.27-15.71,14.46l-73.37,1.54c-9,.18-16.7-5.74-17.78-13.72l-8.34-61.34C2603.69,2389.9,2608.81,2384.1,2616,2383.4Z"/><path class="cls-2" d="M2722.05,2680.55h-.25l-91.81,1.92c-13.11.28-24.21-8.41-25.82-20.21l-10.42-76.76a16.77,16.77,0,0,1,3.57-12.71,20.18,20.18,0,0,1,13.83-7.36h0c7.72-.76,18.58-2,30.07-3.36,24.22-2.81,54.35-6.3,71.34-7l.37,0c12.07-.37,22.68,6.66,25.88,17.21,5.32,17.53,5.93,51,6.11,86.68C2745,2670.51,2734.74,2680.16,2722.05,2680.55Zm-110.2-108.09a13.08,13.08,0,0,0-9,4.71,9.78,9.78,0,0,0-2.11,7.39l10.42,76.76c1.12,8.25,9.15,14.32,18.69,14.11l91.81-1.92h.18c8.89-.27,16.07-6.76,16-14.54-.18-35.14-.76-68.05-5.81-84.68-2.26-7.44-10.35-12.63-19.2-12.19-16.73.72-46.72,4.2-70.82,7-11.53,1.34-22.42,2.6-30.19,3.37Z"/><path class="cls-14" d="M2622,2580.11c19.24-1.91,61-7.45,80.89-8.3,8.42-.36,16,4.5,18.16,11.74,4.27,14.07,4.62,42.35,4.75,68.47,0,7.82-6.94,14.27-15.71,14.46l-73.37,1.54c-9,.19-16.69-5.73-17.78-13.72l-8.33-61.34C2609.71,2586.61,2614.83,2580.82,2622,2580.11Z"/><path class="cls-2" d="M2728.07,2877.26h-.25l-91.81,1.92c-13.12.28-24.22-8.41-25.82-20.21l-10.42-76.76a16.7,16.7,0,0,1,3.57-12.71,20.16,20.16,0,0,1,13.83-7.36h0c7.71-.76,18.57-2,30.07-3.35,24.21-2.82,54.35-6.31,71.34-7l.37,0c12.07-.37,22.68,6.67,25.88,17.21,5.32,17.53,5.92,51,6.1,86.68C2751,2867.22,2740.76,2876.87,2728.07,2877.26Zm-110.21-108.09a13.08,13.08,0,0,0-9,4.71,9.76,9.76,0,0,0-2.12,7.39l10.43,76.76c1.12,8.25,9.15,14.32,18.68,14.11l91.81-1.92h.19c8.89-.27,16.06-6.76,16-14.54-.17-35.14-.75-68.05-5.8-84.68-2.26-7.44-10.36-12.65-19.2-12.19-16.74.72-46.73,4.2-70.83,7-11.52,1.34-22.41,2.6-30.19,3.37Z"/><path class="cls-14" d="M2628,2776.82c19.24-1.91,61-7.44,80.88-8.3,8.42-.36,16,4.5,18.16,11.74,4.27,14.07,4.63,42.35,4.76,68.47,0,7.82-7,14.28-15.71,14.46l-73.37,1.54c-9,.19-16.7-5.73-17.78-13.72l-8.33-61.34C2615.73,2783.33,2620.85,2777.53,2628,2776.82Z"/><g class="cls-15"><path class="cls-2" d="M2038.29,1373.74c-2.41-3-6.2-4.2-10.21-4.11l-365.34,7.66-9.23-29.31a9.5,9.5,0,0,0-9.46-6.59l-50.16,1.32c-5.38.14-9.74,3.88-9.74,9.25s4.36,8.89,9.74,8.76l42.86-1,77.57,247.85a10.23,10.23,0,0,0,9.66,7.1l256.43,3.44c6,.08,10.9-3.69,10.9-9.38s-4.89-9.59-10.9-9.65l-249-2.69-20-64.35,273.57.42a12.69,12.69,0,0,0,12.11-8.75l43.18-139.6A11,11,0,0,0,2038.29,1373.74Z"/><path class="cls-2" d="M1761.49,1630c-21.1-.33-38.17,16.09-38.17,36.6s17.07,37.65,38.17,38.2,38.59-15.86,38.59-36.59S1782.72,1630.28,1761.49,1630Zm0,54.85c-9.86-.23-17.86-8.22-17.86-17.82a17.26,17.26,0,0,1,17.86-17.08c9.89.18,18,8.18,18,17.83A17.27,17.27,0,0,1,1761.49,1684.8Z"/><path class="cls-2" d="M1932.43,1632.6c-22.15-.34-40.06,16.47-40.06,37.49s17.91,38.57,40.06,39.15,40.51-16.22,40.51-37.47S1954.71,1633,1932.43,1632.6Zm0,56.21c-10.35-.25-18.75-8.44-18.75-18.28s8.4-17.68,18.75-17.49,18.85,8.39,18.85,18.28S1942.81,1689.05,1932.43,1688.81Z"/></g><path class="cls-16" d="M1829.06,1802.38c-176.2,0-319.55-143.35-319.55-319.55s143.35-319.56,319.55-319.56,319.55,143.35,319.55,319.56S2005.26,1802.38,1829.06,1802.38Zm0-611.8c-161.14,0-292.25,131.1-292.25,292.25s131.11,292.24,292.25,292.24,292.25-131.1,292.25-292.24S1990.21,1190.58,1829.06,1190.58Z"/><path class="cls-17" d="M2202.74,814.3c-46.51-32.36-86.95-31.72-115.42-23.32a56.78,56.78,0,0,0-40.33,59.7l12.27,134,146.1,13S2294,877.76,2202.74,814.3Zm-64.25,108.11A36.43,36.43,0,1,1,2174.92,886,36.43,36.43,0,0,1,2138.49,922.41Z"/><path class="cls-2" d="M2073.86,928.32a3.53,3.53,0,0,1-3.51-3.2l-1.95-21.34a3.53,3.53,0,1,1,7-.65l1.95,21.35a3.53,3.53,0,0,1-3.19,3.83ZM2070,886.5a3.52,3.52,0,0,1-3.51-3.21l-1.49-16.2a54.2,54.2,0,0,1,38.44-56.87,109.14,109.14,0,0,1,53.39-2.19,3.52,3.52,0,1,1-1.41,6.9,102.38,102.38,0,0,0-50,2.05,47.15,47.15,0,0,0-33.41,49.47l1.49,16.2a3.53,3.53,0,0,1-3.19,3.84Z"/><path class="cls-18" d="M1859.86,1071.3v-67.38a41.13,41.13,0,0,1,42.53-41.09l464.53,15.92a40,40,0,0,1,38.55,37.57l3.88,64.74Z"/><path class="cls-2" d="M2033.08,988.22h-20a3.53,3.53,0,1,1,0-7.05h20a3.53,3.53,0,0,1,0,7.05Z"/><path class="cls-2" d="M1885,1050.14a3.52,3.52,0,0,1-3.53-3.52v-27.26a38.23,38.23,0,0,1,38.19-38.19h73.45a3.53,3.53,0,1,1,0,7.05h-73.45a31.18,31.18,0,0,0-31.14,31.14v27.26A3.52,3.52,0,0,1,1885,1050.14Z"/><path class="cls-12" d="M1670.59,1088.31a43.77,43.77,0,0,1,43.72-41.67l812.32,0a60.06,60.06,0,0,1,59.17,49.8l.68,4a51.56,51.56,0,0,1-50.8,60.36h-833.4a33.53,33.53,0,0,1-33.49-35.13Z"/><path class="cls-19" d="M1595.64,1907.46s-15.26-40.16-33.08-36.48-37.32,17.37-37.32,17.37l-28.63,38.72s80.38,31.66,108.64,13.52c0,0,82.1,14.18,185.78-2.83-15-31.68-24-63.41-29.21-88C1709.31,1879.45,1652.75,1901.65,1595.64,1907.46Z"/><path class="cls-20" d="M2030.53,1616.12S1913,1764.17,1761.82,1849.73c5.25,24.62,14.2,56.35,29.21,88,78.41-12.87,169.17-43.57,246.11-111.81Z"/><path class="cls-21" d="M2177.12,2272.31c-23-109.19-46-172.4-122.95-379.37-24.22-65.13-46.21-131-35.58-199.7l11.94-77.12s149.58-50.62,315.39-2.13c0,0,226.21,98.27,72.56,583.61C2349.22,2275.08,2268.17,2297.17,2177.12,2272.31Z"/><path class="cls-22" d="M2056,1517.68l38.79,93.19a18.55,18.55,0,0,0,14,11.15c22.36,3.84,76.44,9.83,112-13.53a9,9,0,0,0,2.42-12.69l-71.66-102.88Z"/><path class="cls-23" d="M2096.1,1375.12c-1.63,1.53-68.75,133.34-68.75,133.34l76.08,36.72,82.17-115.47S2123.37,1349.45,2096.1,1375.12Z"/><path class="cls-24" d="M2151,1443.56l-37.94,63.25a11.83,11.83,0,0,1-2.08,2.59c-4.52,4.2-20,16.43-31.92-.22-10.18-14.19-19.73-27.09-30-32.41a12.14,12.14,0,0,0-16.37,5.39c-6.25,12.39-18.36,37.65-26,61.6a12.08,12.08,0,0,0,7,14.81c15.41,6.24,45.85,17.53,72.87,21.26a12.14,12.14,0,0,0,11.47-4.88c11.62-15.92,44.38-60.42,55.56-71.56,10.39-10.35,29.56-6.45,38.2-4a12.16,12.16,0,0,0,9.69-1.27c8.77-5.28,24.06-18.42,10.07-40.68a12.15,12.15,0,0,1,3.76-16.5c9.78-6.43,20.4-18.52,10.29-38.08-10.25-19.81-28.53-21.59-41-20.07a12.58,12.58,0,0,1-13.22-7.35,8,8,0,0,0-6.26-4.93,11.76,11.76,0,0,1-9.53-13.83c2.19-11.21.54-25.77-17.36-35.61-32.82-18-61.57,11.36-68.88,36.18s29.38,42.37,52.47,45.29c17,2.16,26.25,20.66,30,30.34A12.12,12.12,0,0,1,2151,1443.56Z"/><path class="cls-25" d="M2137.73,1522.32s16.33-38.41,35-36.84,33.39,20.18,10.23,41.1C2154.17,1552.61,2137.73,1522.32,2137.73,1522.32Z"/><path class="cls-26" d="M2162.39,3234.6c36.13,3.12,98.83,8.19,148.26,10.37,29.71,1.31,46.82-1.6,56.67-5.54,0,1.11-.05,2.15-.09,3.13a10.23,10.23,0,0,1-9.71,9.66c-93.4,5.21-167.69,1.8-194.13.19a7.28,7.28,0,0,1-5.93-10.94A59.9,59.9,0,0,1,2162.39,3234.6Z"/><path class="cls-27" d="M2310.65,3245c-49.43-2.18-112.13-7.25-148.26-10.37,35.52-43.58,148.26-72.95,148.26-72.95h31.84c21.9,31.57,25.07,61.62,24.83,77.78C2357.47,3243.37,2340.36,3246.28,2310.65,3245Z"/><path class="cls-28" d="M2347.85,3109.67l-3,59a13.47,13.47,0,0,1-11.49,12.67,52.47,52.47,0,0,1-23.92-2,15.93,15.93,0,0,1-10.71-12.25l-10.3-57.4Z"/><path class="cls-29" d="M2761.42,3244.53c15.67-2.19,22.76-10.33,25.73-19l.06.24c2.3,9.18-3,18.69-13.72,23.21-12.91,5.47-27,6.4-38,6-11.76-.48-22.56-5.35-28.49-13.14l-.09-.12C2718.73,3247.48,2735.3,3248.17,2761.42,3244.53Z"/><path class="cls-30" d="M2687.56,3109.29h26.26c40-.82,65.11,83.54,73.33,116.21-3,8.7-10.06,16.84-25.73,19-26.12,3.64-42.69,2.95-54.5-2.89-21.6-28.43-32.32-70.08-37.47-94.38C2663.6,3119.62,2687.56,3109.29,2687.56,3109.29Z"/><path class="cls-31" d="M2710.44,3054.56l14.58,58a15.72,15.72,0,0,1-8.19,17.83c-8.16,4.19-19.64,8.59-30.19,7.32a13.16,13.16,0,0,1-10.73-8.77l-21.41-61Z"/><path class="cls-32" d="M2727.83,3071.33c-18.14,16.09-77.14,18.21-77.14,18.21C2438.14,2579.4,2349.52,2439,2349.52,2439c30.69,192.55,6.62,686.8,6.62,686.8-35.08,15.48-80.3,0-80.3,0-2.85-315.23-47.23-654-104.47-870.69,143.66-3.23,221.73-34.55,246.68-54.28C2537.8,2393.85,2727.83,3071.33,2727.83,3071.33Z"/><path class="cls-33" d="M2135.18,2397.62,2161.61,2562a54.16,54.16,0,0,0,60.13,45l395.64-48.26a39.08,39.08,0,0,0,34.42-37.93c.84-42.48-.83-118.08-18.65-187Z"/><path class="cls-2" d="M2220.44,2596.86h-.07a53.18,53.18,0,0,1-9.47-1.4,1.17,1.17,0,1,1,.56-2.28,50.17,50.17,0,0,0,9.05,1.34,1.17,1.17,0,0,1-.07,2.34Zm21.77-1.83a1.17,1.17,0,0,1-.14-2.34l9.31-1.13a1.14,1.14,0,0,1,1.31,1,1.18,1.18,0,0,1-1,1.31l-9.31,1.13Zm31-3.79a1.17,1.17,0,0,1-.15-2.33l9.31-1.14a1.15,1.15,0,0,1,1.31,1,1.17,1.17,0,0,1-1,1.3l-9.31,1.14Zm31-3.78a1.17,1.17,0,0,1-.14-2.34l9.31-1.13a1.13,1.13,0,0,1,1.3,1,1.18,1.18,0,0,1-1,1.31l-9.31,1.13ZM2191.62,2586a1.2,1.2,0,0,1-.72-.24,53.48,53.48,0,0,1-7-6.54,1.18,1.18,0,0,1,1.76-1.57,50.12,50.12,0,0,0,6.68,6.26,1.17,1.17,0,0,1-.72,2.09Zm143.69-2.37a1.17,1.17,0,0,1-.14-2.33l9.31-1.14a1.15,1.15,0,0,1,1.31,1,1.17,1.17,0,0,1-1,1.31l-9.31,1.14Zm31-3.78a1.17,1.17,0,0,1-.15-2.34l9.31-1.13a1.13,1.13,0,0,1,1.31,1,1.16,1.16,0,0,1-1,1.3l-9.31,1.14Zm31-3.79a1.17,1.17,0,0,1-.14-2.33l9.31-1.14a1.13,1.13,0,0,1,1.3,1,1.17,1.17,0,0,1-1,1.31l-9.31,1.13Zm31-3.78a1.18,1.18,0,0,1-1.17-1,1.17,1.17,0,0,1,1-1.31l9.31-1.13a1.14,1.14,0,0,1,1.31,1,1.16,1.16,0,0,1-1,1.3l-9.31,1.14Zm31-3.79a1.17,1.17,0,0,1-.14-2.33l9.31-1.14a1.12,1.12,0,0,1,1.3,1,1.17,1.17,0,0,1-1,1.31l-9.31,1.13Zm31-3.78a1.17,1.17,0,0,1-.14-2.34l9.31-1.14a1.14,1.14,0,0,1,1.31,1,1.17,1.17,0,0,1-1,1.3l-9.31,1.14Zm31-3.79a1.17,1.17,0,0,1-.14-2.33l9.31-1.14a1.13,1.13,0,0,1,1.3,1,1.18,1.18,0,0,1-1,1.31l-9.31,1.13Zm-347.42-.22a1.17,1.17,0,0,1-1.12-.83,52.5,52.5,0,0,1-1.67-7.19l-.35-2.12a1.18,1.18,0,0,1,1-1.35,1.17,1.17,0,0,1,1.35,1l.34,2.13a49.67,49.67,0,0,0,1.6,6.87,1.18,1.18,0,0,1-.77,1.47A1.41,1.41,0,0,1,2174.1,2560.74Zm378.45-3.56a1.17,1.17,0,0,1-.14-2.34l9.31-1.14a1.14,1.14,0,0,1,1.31,1,1.17,1.17,0,0,1-1,1.3l-9.31,1.14Zm31-3.79a1.17,1.17,0,0,1-.15-2.34l9.31-1.13a1.14,1.14,0,0,1,1.31,1,1.18,1.18,0,0,1-1,1.31l-9.31,1.13Zm30.84-4.72a1.16,1.16,0,0,1-1.1-.77,1.18,1.18,0,0,1,.7-1.5,35.75,35.75,0,0,0,8.07-4.13,1.17,1.17,0,1,1,1.32,1.93,38.29,38.29,0,0,1-8.59,4.4A1.09,1.09,0,0,1,2614.43,2548.67ZM2168.65,2530a1.17,1.17,0,0,1-1.16-1l-1.49-9.26a1.17,1.17,0,0,1,1-1.34,1.15,1.15,0,0,1,1.35,1l1.48,9.26a1.16,1.16,0,0,1-1,1.34Zm467.64-2.36a1.15,1.15,0,0,1-.44-.09,1.17,1.17,0,0,1-.65-1.52,35.14,35.14,0,0,0,2.29-8.76,1.17,1.17,0,0,1,2.33.3,37.64,37.64,0,0,1-2.44,9.33A1.19,1.19,0,0,1,2636.29,2527.62Zm-472.6-28.51a1.17,1.17,0,0,1-1.16-1l-1.49-9.26a1.17,1.17,0,0,1,1-1.34,1.15,1.15,0,0,1,1.34,1l1.49,9.26a1.16,1.16,0,0,1-1,1.34Zm475.43-2.41a1.17,1.17,0,0,1-1.17-1.17c0-3,0-6.15-.07-9.37A1.17,1.17,0,0,1,2639,2485a1.2,1.2,0,0,1,1.19,1.15c0,3.23.06,6.37.07,9.4a1.17,1.17,0,0,1-1.18,1.17Zm-480.4-28.46a1.17,1.17,0,0,1-1.15-1l-1.49-9.26a1.17,1.17,0,0,1,1-1.35,1.14,1.14,0,0,1,1.34,1l1.49,9.26a1.18,1.18,0,0,1-1,1.35Zm479.78-2.81a1.16,1.16,0,0,1-1.17-1.12c-.12-3.07-.25-6.19-.41-9.36a1.16,1.16,0,0,1,1.11-1.23,1.17,1.17,0,0,1,1.23,1.11c.16,3.18.29,6.31.41,9.39a1.16,1.16,0,0,1-1.13,1.21Zm-484.74-28a1.18,1.18,0,0,1-1.16-1l-1.48-9.26a1.17,1.17,0,1,1,2.31-.37l1.49,9.26a1.17,1.17,0,0,1-1,1.34Zm482.93-3.16a1.18,1.18,0,0,1-1.17-1.08q-.37-4.63-.79-9.34a1.17,1.17,0,0,1,1.06-1.27,1.15,1.15,0,0,1,1.27,1.06c.29,3.15.55,6.27.8,9.36a1.18,1.18,0,0,1-1.08,1.26Zm-487.89-27.71a1.19,1.19,0,0,1-1.16-1l-1.49-9.26a1.18,1.18,0,0,1,1-1.35,1.17,1.17,0,0,1,1.35,1l1.49,9.26a1.17,1.17,0,0,1-1,1.34Zm484.76-3.4a1.17,1.17,0,0,1-1.16-1c-.39-3.09-.79-6.18-1.22-9.29a1.17,1.17,0,1,1,2.32-.32c.43,3.12.84,6.22,1.22,9.32a1.17,1.17,0,0,1-1,1.31Zm-481.72-6.44a1.18,1.18,0,0,1-.15-2.34l9.3-1.19a1.12,1.12,0,0,1,1.32,1,1.19,1.19,0,0,1-1,1.32l-9.3,1.19Zm31-4a1.18,1.18,0,0,1-.15-2.34l9.31-1.19a1.12,1.12,0,0,1,1.31,1,1.18,1.18,0,0,1-1,1.31l-9.31,1.19Zm31-4a1.17,1.17,0,0,1-.15-2.34l9.3-1.19a1.13,1.13,0,0,1,1.31,1,1.16,1.16,0,0,1-1,1.31l-9.3,1.19Zm31-4a1.18,1.18,0,0,1-1.17-1,1.19,1.19,0,0,1,1-1.32l9.3-1.19a1.13,1.13,0,0,1,1.31,1,1.16,1.16,0,0,1-1,1.31l-9.3,1.19Zm31-4a1.17,1.17,0,0,1-.15-2.33l9.3-1.19a1.12,1.12,0,0,1,1.31,1,1.16,1.16,0,0,1-1,1.31l-9.3,1.19Zm31-4a1.17,1.17,0,0,1-.15-2.33l9.3-1.19a1.14,1.14,0,0,1,1.32,1,1.18,1.18,0,0,1-1,1.31l-9.3,1.19Zm31-4a1.17,1.17,0,0,1-.15-2.33l9.3-1.19a1.15,1.15,0,0,1,1.32,1,1.19,1.19,0,0,1-1,1.32l-9.3,1.19Zm291-.67a1.17,1.17,0,0,1-1.15-1c-.55-3.06-1.12-6.13-1.72-9.19a1.17,1.17,0,1,1,2.3-.46q.9,4.62,1.73,9.24a1.17,1.17,0,0,1-1,1.36A.75.75,0,0,1,2628.91,2372.18Zm-260-3.29a1.18,1.18,0,0,1-.15-2.34l9.3-1.19a1.13,1.13,0,0,1,1.32,1,1.18,1.18,0,0,1-1,1.31l-9.3,1.19Zm31-4a1.18,1.18,0,0,1-.15-2.34l9.3-1.19a1.13,1.13,0,0,1,1.32,1,1.18,1.18,0,0,1-1,1.31l-9.3,1.19Zm31-4a1.18,1.18,0,0,1-.15-2.34l9.3-1.19a1.14,1.14,0,0,1,1.32,1,1.18,1.18,0,0,1-1,1.31l-9.3,1.19Zm31-4a1.17,1.17,0,0,1-.15-2.33l9.31-1.19a1.13,1.13,0,0,1,1.31,1,1.17,1.17,0,0,1-1,1.31l-9.31,1.19Zm31-4a1.17,1.17,0,0,1-.15-2.33l9.31-1.19a1.12,1.12,0,0,1,1.31,1,1.17,1.17,0,0,1-1,1.31l-9.31,1.19Zm31-4a1.17,1.17,0,0,1-.15-2.34l9.3-1.19a1.13,1.13,0,0,1,1.31,1,1.17,1.17,0,0,1-1,1.32l-9.3,1.19Zm31-4a1.17,1.17,0,0,1-.15-2.34l9.3-1.19a1.14,1.14,0,0,1,1.31,1,1.17,1.17,0,0,1-1,1.31l-9.3,1.19Zm67.48-3.49a1.17,1.17,0,0,1-1.14-.89c-.32-1.33-.66-2.65-1-4l-3.17.41a1.14,1.14,0,0,1-1.31-1,1.18,1.18,0,0,1,1-1.32l5.23-.66.25,1q.66,2.49,1.27,5a1.18,1.18,0,0,1-.86,1.42A1.33,1.33,0,0,1,2622.47,2341.59Zm-36.47-.48a1.18,1.18,0,0,1-.15-2.34l9.3-1.19a1.14,1.14,0,0,1,1.32,1,1.18,1.18,0,0,1-1,1.31l-9.3,1.19Z"/><path class="cls-34" d="M2235.71,2263l-.44-12.88a9.85,9.85,0,0,1,6.69-6.67c12.06-3.54,42.17-10.89,58.28-1.78l4.09,14.51Z"/><path class="cls-35" d="M2272.61,2245.78a17.93,17.93,0,0,1-8.52,1.08,7.77,7.77,0,0,1-6.83-6.71l-5.1-39.87,20.29-2.59,5.1,39.83A7.81,7.81,0,0,1,2272.61,2245.78Z"/><path class="cls-36" d="M2432.22,2237.8l-.44-12.88a9.9,9.9,0,0,1,6.7-6.67c12.06-3.53,42.17-10.89,58.28-1.78l4.09,14.52Z"/><path class="cls-37" d="M2469.13,2220.63a17.8,17.8,0,0,1-8.52,1.08,7.76,7.76,0,0,1-6.83-6.71l-5.64-44.06,20.29-2.6,5.63,44A7.79,7.79,0,0,1,2469.13,2220.63Z"/><path class="cls-38" d="M2251.35,2210.32l217.27-35.15a10.6,10.6,0,0,0,9-9.92,89.59,89.59,0,0,0-2.86-27.74,25.38,25.38,0,0,0-27.12-18.18c-40.83,4.24-144.45,17.53-198.68,47.43a20.1,20.1,0,0,0-10.27,15.38,48.64,48.64,0,0,0,2.31,22.23A9.46,9.46,0,0,0,2251.35,2210.32Z"/><path class="cls-4" d="M2246,2201.63a3.15,3.15,0,0,1-3.05-2.42,54.17,54.17,0,0,1-.83-17.39,20.51,20.51,0,0,1,12.05-15.86c11.8-5.17,34.45-14.28,53.6-17.28a3.13,3.13,0,0,1,1,6.18c-19.14,3-42.78,12.76-52.05,16.82a14.07,14.07,0,0,0-8.37,11,47.93,47.93,0,0,0,.74,15.13,3.13,3.13,0,0,1-2.34,3.75A3.51,3.51,0,0,1,2246,2201.63Z"/><path class="cls-39" d="M2133.83,2270.94c70.38-9.92,374.92-52.14,464.87-52.79a18.19,18.19,0,0,1,17.29,12c8.26,23,25.82,76.62,31.55,131.27a15.92,15.92,0,0,1-11,16.71l-197.31,64.13-71.82,9.19-220.93-15.26a17,17,0,0,1-15.59-13.9c-4.91-27.23-15.32-91.28-13.21-133.63A18.8,18.8,0,0,1,2133.83,2270.94Z"/><path class="cls-2" d="M2367,2435l-9.59-.64a1.19,1.19,0,0,1-1.09-1.25,1.17,1.17,0,0,1,1.25-1.09l9.36.65,1-.15a1.13,1.13,0,0,1,1.31,1,1.17,1.17,0,0,1-1,1.31Zm-31.34-2.15h-.08l-9.36-.64a1.17,1.17,0,1,1,.16-2.34l9.36.64a1.17,1.17,0,0,1-.08,2.34Zm54.1-.77a1.18,1.18,0,0,1-.15-2.34l9.31-1.19a1.13,1.13,0,0,1,1.31,1,1.18,1.18,0,0,1-1,1.31L2390,2432Zm-85.29-1.38h-.08l-9.36-.65a1.18,1.18,0,0,1-1.09-1.25,1.24,1.24,0,0,1,1.25-1.09l9.36.65a1.17,1.17,0,0,1-.08,2.34Zm-31.19-2.15h-.08l-9.35-.64a1.17,1.17,0,0,1-1.09-1.25,1.2,1.2,0,0,1,1.25-1.09l9.35.64a1.18,1.18,0,0,1-.08,2.35Zm147.49-.44a1.18,1.18,0,0,1-.15-2.34l9.31-1.19a1.13,1.13,0,0,1,1.31,1,1.17,1.17,0,0,1-1,1.31l-9.31,1.19Zm-178.68-1.72h-.08l-9.35-.65a1.16,1.16,0,0,1-1.09-1.25,1.2,1.2,0,0,1,1.25-1.09l9.35.65a1.17,1.17,0,0,1-.08,2.34Zm-31.19-2.15h-.08l-9.35-.65a1.17,1.17,0,1,1,.16-2.34l9.35.65a1.17,1.17,0,0,1-.08,2.34Zm-31.19-2.16h-.08l-9.36-.64a1.17,1.17,0,1,1,.16-2.34l9.36.64a1.17,1.17,0,0,1-.08,2.34Zm271.4-1a1.17,1.17,0,0,1-.37-2.29l8.92-2.9a1.17,1.17,0,1,1,.73,2.23l-8.92,2.9A1.13,1.13,0,0,1,2451.15,2421.07Zm-302.59-1.19h-.08l-1.38-.1-.16-.9c-.46-2.58-1-5.53-1.55-8.79a1.18,1.18,0,1,1,2.32-.4c.5,2.93,1,5.6,1.39,8a1.17,1.17,0,0,1-.54,2.21Zm332.32-8.48a1.17,1.17,0,0,1-.36-2.28l8.92-2.9a1.17,1.17,0,0,1,.72,2.23l-8.92,2.9A1.49,1.49,0,0,1,2480.88,2411.4Zm29.74-9.66a1.17,1.17,0,0,1-.37-2.29l8.92-2.9a1.17,1.17,0,1,1,.73,2.23l-8.92,2.9A1.13,1.13,0,0,1,2510.62,2401.74Zm29.73-9.66a1.17,1.17,0,0,1-1.11-.82,1.15,1.15,0,0,1,.75-1.47l8.91-2.9a1.17,1.17,0,1,1,.73,2.23l-8.92,2.9A1.13,1.13,0,0,1,2540.35,2392.08Zm-397.28-2.64a1.17,1.17,0,0,1-1.16-1q-.69-4.52-1.36-9.3a1.16,1.16,0,0,1,1-1.32,1.18,1.18,0,0,1,1.33,1c.45,3.18.9,6.28,1.36,9.28a1.17,1.17,0,0,1-1,1.33Zm427-7a1.17,1.17,0,0,1-.36-2.29l8.92-2.9a1.17,1.17,0,0,1,1.47.76,1.15,1.15,0,0,1-.75,1.47l-8.92,2.9A1.13,1.13,0,0,1,2570.08,2382.41Zm29.73-9.66a1.17,1.17,0,0,1-.36-2.29l8.92-2.9a1.17,1.17,0,1,1,.73,2.23l-8.92,2.9A1.19,1.19,0,0,1,2599.81,2372.75Zm29.74-9.67a1.17,1.17,0,0,1-.89-1.94q-.45-4.07-1-8.12a1.18,1.18,0,1,1,2.33-.31c.39,3,.75,6,1.08,8.95l.11,1-1.28.42A1.12,1.12,0,0,1,2629.55,2363.08Zm-490.67-4.65a1.18,1.18,0,0,1-1.17-1c-.36-3.09-.71-6.21-1-9.34a1.17,1.17,0,0,1,1-1.29,1.16,1.16,0,0,1,1.29,1c.33,3.12.68,6.23,1,9.31a1.17,1.17,0,0,1-1,1.31Zm486.52-26a1.18,1.18,0,0,1-1.15-1c-.57-3.09-1.16-6.16-1.78-9.19a1.19,1.19,0,0,1,.92-1.39,1.16,1.16,0,0,1,1.38.92q.93,4.57,1.79,9.23a1.19,1.19,0,0,1-.95,1.37Zm-489.48-5.13a1.17,1.17,0,0,1-1.17-1.09c-.22-3.16-.4-6.3-.55-9.39a1.17,1.17,0,0,1,1.12-1.23h0a1.17,1.17,0,0,1,1.17,1.12c.15,3.07.33,6.19.55,9.34a1.17,1.17,0,0,1-1.09,1.25Zm482.92-25.45a1.17,1.17,0,0,1-1.14-.89q-1.12-4.63-2.28-9.09a1.17,1.17,0,1,1,2.26-.59q1.17,4.47,2.3,9.12a1.17,1.17,0,0,1-.86,1.42A1.33,1.33,0,0,1,2618.84,2301.84ZM2135,2296h0a1.17,1.17,0,0,1-1.14-1.2c0-1.83.11-3.63.19-5.38a2.39,2.39,0,0,1,2.07-2.28l2.29-.33a1.16,1.16,0,0,1,1.32,1,1.18,1.18,0,0,1-1,1.33l-2.28.32c-.14,1.81-.2,3.58-.25,5.39A1.17,1.17,0,0,1,2135,2296Zm25.23-9.88a1.18,1.18,0,0,1-.16-2.34l9.29-1.29a1.18,1.18,0,0,1,.32,2.33l-9.29,1.28Zm31-4.28a1.17,1.17,0,0,1-.16-2.33l9.3-1.27a1.13,1.13,0,0,1,1.32,1,1.17,1.17,0,0,1-1,1.32l-9.3,1.27Zm31-4.21a1.17,1.17,0,0,1-.16-2.33l9.3-1.25a1.14,1.14,0,0,1,1.32,1,1.19,1.19,0,0,1-1,1.32l-9.3,1.25Zm31-4.14a1.18,1.18,0,0,1-.15-2.34l9.3-1.23a1.19,1.19,0,0,1,1.32,1,1.17,1.17,0,0,1-1,1.31l-9.3,1.23Zm357.45-1.88a1.17,1.17,0,0,1-1.12-.84q-1.39-4.68-2.73-9a1.17,1.17,0,0,1,2.24-.69c.89,2.86,1.81,5.86,2.74,9a1.18,1.18,0,0,1-.79,1.46A1.33,1.33,0,0,1,2610.68,2271.65Zm-326.44-2.21a1.17,1.17,0,0,1-.15-2.33l9.3-1.21a1.16,1.16,0,0,1,1.32,1,1.17,1.17,0,0,1-1,1.31l-9.31,1.22Zm31-4a1.17,1.17,0,0,1-.15-2.34l9.31-1.19a1.16,1.16,0,0,1,1.31,1,1.18,1.18,0,0,1-1,1.31l-9.3,1.19Zm31-3.93a1.17,1.17,0,0,1-.15-2.33l9.31-1.16a1.17,1.17,0,1,1,.29,2.32l-9.31,1.16Zm31-3.83a1.17,1.17,0,0,1-.14-2.33l9.31-1.13a1.17,1.17,0,0,1,1.31,1,1.18,1.18,0,0,1-1,1.31l-9.3,1.12Zm31-3.71a1.17,1.17,0,0,1-.14-2.34l9.32-1.09a1.15,1.15,0,0,1,1.3,1,1.18,1.18,0,0,1-1,1.3l-9.32,1.09Zm31.06-3.59a1.17,1.17,0,0,1-.13-2.34l9.32-1a1.16,1.16,0,0,1,1.29,1,1.18,1.18,0,0,1-1,1.3l-9.32,1Zm31.07-3.42a1.17,1.17,0,0,1-.12-2.34l9.33-1a1.17,1.17,0,1,1,.24,2.33l-9.32,1Zm31.11-3.21a1.17,1.17,0,0,1-.12-2.34l9.35-.91a1.21,1.21,0,0,1,1.27,1.06,1.17,1.17,0,0,1-1.05,1.28c-3.05.29-6.17.59-9.34.91Zm99.5-1.88a1.16,1.16,0,0,1-1.1-.79c-.53-1.51-1-2.91-1.49-4.19l-3.36,0a1.23,1.23,0,0,1-1.2-1.15,1.17,1.17,0,0,1,1.16-1.19l3.72-.05a1.81,1.81,0,0,1,1.73,1.12q.76,2.12,1.65,4.65a1.17,1.17,0,0,1-.72,1.49A1.07,1.07,0,0,1,2601.09,2241.87Zm-68.37-1a1.17,1.17,0,0,1-.1-2.34q4.78-.42,9.35-.8a1.11,1.11,0,0,1,1.26,1.08,1.17,1.17,0,0,1-1.07,1.26c-3,.25-6.15.51-9.34.79Zm31.17-2.44a1.17,1.17,0,0,1-.08-2.34c3.26-.22,6.38-.41,9.38-.58a1.08,1.08,0,0,1,1.23,1.1,1.17,1.17,0,0,1-1.1,1.24c-3,.17-6.1.36-9.35.58Z"/><path class="cls-40" d="M2436.33,2473.26l-62.93,8a16.39,16.39,0,0,1-18-12.22l-15-59.62a16.37,16.37,0,0,1,13.85-20.2l75.59-9.67a16.38,16.38,0,0,1,18.48,15.57l2.35,61.24A16.4,16.4,0,0,1,2436.33,2473.26Z"/><path class="cls-41" d="M2427.16,2463.11l-47.89,6.13a12.48,12.48,0,0,1-13.7-9.3l-11.43-45.38a12.46,12.46,0,0,1,10.54-15.37l57.54-7.36a12.46,12.46,0,0,1,14.06,11.84l1.79,46.62A12.47,12.47,0,0,1,2427.16,2463.11Z"/><path class="cls-42" d="M2389.74,1980.59c14.84,61.33,15.23,121.33,13,143.17A17,17,0,0,1,2387,2139c-9.38.65-22.15,1.52-33.56,2.17-12.55.73-26.47-7.2-35.78-13.83a5.6,5.6,0,0,0-8.25,7.08c4.58,9,12.52,16,20.41,22,4.74,3.6,20.51,10,19.41,17.1a12.69,12.69,0,0,1-3.15,5.93c-8.76,10.51-22,16.13-35.1,20.14a9.89,9.89,0,0,0-4.53,2.31c-.33,8.47,25.7,17.86,32.42,20.09a74.57,74.57,0,0,0,31.3,3.64c26.19-2.75,50.37-20.83,64.47-42.62,37.71-58.26,57.2-128.61,64.32-182.42C2463.87,1965.53,2410.92,1974.42,2389.74,1980.59Z"/><path class="cls-43" d="M2498.94,2006.13c28-211.29-134.86-373.77-134.86-373.77l-96.88,113C2340.75,1837,2375.72,1921,2391.69,1987,2412.87,1980.82,2463.87,1971.07,2498.94,2006.13Z"/><path class="cls-44" d="M2389.38,1986a6,6,0,0,1-5.83-4.59c-19.69-81.34-61.19-161.86-123.34-239.33a6,6,0,1,1,9.36-7.51c63.26,78.85,105.54,161,125.65,244a6,6,0,0,1-4.43,7.24A5.67,5.67,0,0,1,2389.38,1986Z"/><path class="cls-45" d="M1077.27,3238.59a12.43,12.43,0,0,0-.32-3.13c-15.58-61.77-92.92-100.25-92.92-100.25l-30.64,2.4c-17.62,54.45-15.36,87.84-12.53,102.72.08.41.21.81.32,1.21C966.46,3243.8,1018.49,3245.28,1077.27,3238.59Z"/><path class="cls-46" d="M941.18,3241.54c1.36,5,5,8.84,9.72,9.82,36,7.57,93.12,1.48,117.11-1.66,5.3-.69,9.17-5.59,9.26-11.11C1018.49,3245.28,966.46,3243.8,941.18,3241.54Z"/><path class="cls-47" d="M941.07,3092l13,62.48a10.21,10.21,0,0,0,8.73,8.41,86.91,86.91,0,0,0,20.1-.32c6.7-1,11.36-7.79,10.18-15.09L984,3092Z"/><path class="cls-48" d="M1210,3240.75c-33.85-.95-51.35-4.93-60.4-8.63,0,3.36,0,6.79.1,10.34.12,3.79,2.93,6.82,6.38,6.79l185.83-1.2c5.93,0,9.4-6.91,6.83-12.35C1324.36,3237.71,1262.31,3242.22,1210,3240.75Z"/><path class="cls-49" d="M1348.73,3235.7a9,9,0,0,0-.74-1.4c-16.41-22.93-58.21-68.6-140.8-88.4l-39.63-1.25s-17.64,30.66-18,87.47c9.05,3.7,26.55,7.68,60.4,8.63C1262.31,3242.22,1324.36,3237.71,1348.73,3235.7Z"/><path class="cls-50" d="M1158.45,3086.44c.63,2.92,8.87,47.38,12.06,64.62a8.62,8.62,0,0,0,7.75,7.31c6.79.38,17.73.43,27.14-2.13,5.08-1.38,8.49-6.55,8.12-12.3l-4.43-70.32Z"/><path class="cls-51" d="M1128.43,2265.55s54.5,374.55,93.84,820.25c.73,8.3-5.89,15.52-14,17.24-12,2.53-29.68,5.54-44.3,5.13a16.43,16.43,0,0,1-15.65-13.71c-13.4-78.58-109-500.34-134.11-593.16,0,0-28.83,394.29-19.62,598.86a9.69,9.69,0,0,1-8.55,10.08,162.65,162.65,0,0,1-35.57-.1,13,13,0,0,1-11.56-11c-9.54-66.5-64.48-462.38-62.14-747.56.13-16.08,18.86-148.21,18.86-148.21Z"/><path class="cls-52" d="M887.4,2287.14a15.42,15.42,0,0,1-10.12-13c-7.25-70.32-42.34-506.34,179.22-685.7,0,0,12.71-33.25,117.15,48.47s48.52,167.37,23.52,285.52c-30.26,143-83.35,259.82-59.86,347.8a12.2,12.2,0,0,1-7.46,14.62C1048.72,2314.76,967.9,2315.75,887.4,2287.14Z"/><path class="cls-53" d="M1142.93,1457.8c-.07,6.21-88.54,131.87-88.54,131.87s15.88,31.28,91.69,56.67l65.44-134.55Z"/><path class="cls-54" d="M1212.59,1385.79s31.48,72.32,33.59,110.28,10.3,62.58-33.59,70.23-80.86-14.22-100.89-52c0,0-31.38-58.26-24.34-82.12S1212.59,1385.79,1212.59,1385.79Z"/><path class="cls-55" d="M1126.7,1487.08l2.5-1.1a6,6,0,0,0,2.94-8.27c-6.19-12-18.25-39.36-2.67-45.75,20.09-8.24,99.65-24.47,116.82-52.7,16.5-27.13,1.88-62.16-20.09-72.12a3,3,0,0,0-4,1.29l-1.83,3.46a3,3,0,0,1-5.5-.56h0a3,3,0,0,0-5.37-.77c-5.28,8.45-19.52,22.14-57.62,29.17-54.14,10-89.94,31.9-90.83,69.32a3,3,0,0,1-4.62,2.46c-4-2.44-10.39-3.58-18.94,3.61-14.87,12.5-8.79,44.93,23.81,71.61a3,3,0,0,1-.14,4.78c-5.91,3.85-14.72,13,8.11,25.2,23.61,12.62,41.24,11.59,48,10.47a3,3,0,0,0,2.4-3.59l-7.24-32.88a3,3,0,0,1,2.91-3.63Z"/><path class="cls-56" d="M1128.06,1494s-12-46.19-32.72-33.24,10.75,51.76,27.4,53.49Z"/><path class="cls-57" d="M1207.25,1674.84l6.1,163.83a450.13,450.13,0,0,0,49.53,14.06c9.82-31.63,31.46-70.45,49.17-99.32C1247,1730.4,1207.25,1674.84,1207.25,1674.84Z"/><path class="cls-58" d="M1532.21,1672.06c-89.29,96.39-161.55,102.07-220.16,81.35-17.71,28.87-39.35,67.69-49.17,99.32,238.43,52.57,294.57-166.62,294.57-166.62Z"/><path class="cls-59" d="M1550.31,1661.82s10.29-11,29.32-7.58,36,10.09,47.84,0,16,3.45,16,3.45l-35.52,27Z"/><path class="cls-60" d="M1529.07,1680.7s7-29.47,28.28-25.43,69.45,30.26,81.88,25.43,28.31-16.39,36.46-12.31l-14.35,17.85s36.91-21.29,43.26-8.21l-61.42,34.56S1553.33,1703.6,1529.07,1680.7Z"/><path class="cls-61" d="M1108.14,1889.26s167.85,140.58,349.11,79.24a43.14,43.14,0,0,1,34,2.56l52.11,27.52a46.52,46.52,0,0,0,61.65-17.26c7.24-12.11,13.42-25.94,14.65-39.19l-102-41.28,7.52-12.5s-49.78-4.22-62.81,31.46c0,0-94.82,39.44-254.74-136.45C1207.69,1783.36,1135.12,1845.06,1108.14,1889.26Z"/><path class="cls-62" d="M1099.1,1887.8a2.79,2.79,0,0,1-1.6-.49c-70.68-47.75-103.93-124.83-104.26-125.6a2.87,2.87,0,0,1,5.29-2.25c.32.76,33,76.31,102.18,123.09a2.87,2.87,0,0,1-1.61,5.25Z"/><path class="cls-63" d="M1204.38,1781a2.87,2.87,0,0,1-2.42-1.32c-.21-.33-21.81-33.94-62.93-107.58-12.65-22.64-29.27-37-49.4-42.62-33.34-9.31-65.47,8.56-65.79,8.74a2.9,2.9,0,0,1-3.92-1.08,2.87,2.87,0,0,1,1.08-3.91c1.39-.79,34.43-19.28,70.12-9.29,21.69,6,39.5,21.31,52.93,45.35,41,73.46,62.53,107,62.74,107.28a2.87,2.87,0,0,1-.86,4A2.77,2.77,0,0,1,1204.38,1781Z"/></g></g></svg>